<?xml version="1.0" standalone="no"?>
<!DOCTYPE svg PUBLIC "-//W3C//DTD SVG 20010904//EN"
 "http://www.w3.org/TR/2001/REC-SVG-20010904/DTD/svg10.dtd">
<svg version="1.0" xmlns="http://www.w3.org/2000/svg"
 width="700.000000pt" height="700.000000pt" viewBox="0 0 700.000000 700.000000"
 preserveAspectRatio="xMidYMid meet">
<metadata>
Created by potrace 1.11, written by Peter Selinger 2001-2013
</metadata>
<g transform="translate(0.000000,700.000000) scale(0.100000,-0.100000)"
fill="#000000" stroke="none">
<path d="M3299 6996 c-2 -2 -42 -6 -89 -10 -170 -12 -355 -41 -539 -86 -1071
-262 -1959 -1016 -2390 -2029 -144 -337 -235 -704 -269 -1076 -9 -105 -8 -510
1 -605 8 -75 33 -257 41 -295 2 -11 7 -40 11 -65 13 -81 83 -343 123 -460 54
-157 91 -248 158 -387 371 -765 1001 -1368 1781 -1702 274 -117 659 -223 898
-247 33 -3 63 -8 66 -10 15 -9 235 -19 419 -19 261 1 331 6 580 46 742 121
1438 497 1970 1065 106 113 132 144 220 259 379 498 628 1111 696 1715 4 36 8
74 10 85 1 11 5 91 9 177 5 126 3 164 -9 192 -25 60 -99 83 -156 49 -51 -29
-53 -39 -65 -308 -4 -77 -8 -142 -10 -145 -1 -3 -6 -30 -9 -60 -88 -757 -487
-1509 -1076 -2030 -536 -475 -1203 -756 -1930 -816 -252 -20 -599 1 -860 53
-69 13 -134 26 -145 29 -72 14 -321 93 -435 139 -284 113 -516 243 -761 426
-119 88 -142 107 -234 192 -491 447 -828 1012 -984 1647 -17 69 -33 142 -37
164 -3 21 -8 48 -10 60 -27 127 -47 380 -46 571 1 170 20 413 39 500 2 11 7
36 9 55 12 82 69 314 105 425 367 1147 1341 2006 2524 2224 61 11 135 23 165
26 30 3 66 8 80 10 89 15 445 22 580 11 59 -4 181 -18 202 -21 9 -2 38 -6 65
-10 142 -19 370 -74 542 -131 57 -19 112 -34 123 -34 61 0 116 71 104 135 -10
51 -51 80 -171 118 -274 88 -424 119 -765 162 -52 7 -525 16 -531 11z"/>
<path d="M3397 6435 c-1 -2 -49 -6 -107 -9 -58 -4 -114 -9 -125 -10 -36 -5
-130 -18 -145 -21 -213 -39 -221 -41 -405 -97 -269 -83 -569 -231 -806 -398
-608 -431 -1034 -1081 -1184 -1806 -13 -66 -27 -141 -31 -169 -3 -27 -8 -61
-10 -75 -23 -162 -22 -516 1 -688 2 -18 7 -52 10 -75 142 -1031 835 -1915
1811 -2310 272 -110 593 -185 872 -204 223 -15 567 0 702 32 56 13 71 20 91
41 32 34 34 111 4 144 -39 43 -67 47 -199 27 -195 -30 -594 -28 -776 3 -30 5
-71 12 -90 15 -19 3 -82 17 -140 31 -663 158 -1251 568 -1625 1134 -93 140
-186 313 -238 440 -39 93 -115 310 -121 344 -2 11 -11 48 -19 81 -16 61 -17
67 -35 170 -30 170 -37 258 -37 470 1 177 8 320 20 365 2 8 7 35 10 60 4 25
15 86 26 135 213 993 960 1782 1939 2048 123 34 307 68 445 84 88 10 459 10
545 0 769 -91 1429 -466 1891 -1077 264 -349 453 -809 514 -1250 3 -25 8 -61
11 -80 11 -82 10 -470 -2 -570 -7 -58 -16 -137 -20 -177 l-7 -72 36 -36 c49
-49 100 -49 151 -1 20 18 37 42 37 52 2 21 4 42 13 97 20 127 29 247 30 412 1
77 -2 172 -6 211 -9 102 -19 196 -24 219 -2 11 -6 36 -9 55 -39 306 -206 754
-390 1050 -31 51 -119 184 -125 190 -3 3 -18 23 -35 45 -248 338 -626 654
-1021 853 -335 170 -695 273 -1069 307 -65 6 -352 14 -358 10z"/>
<path d="M3220 5855 c-153 -23 -174 -26 -275 -50 -150 -36 -324 -99 -475 -172
-123 -59 -163 -82 -285 -162 -262 -172 -507 -420 -680 -691 -57 -88 -154 -272
-185 -350 -12 -30 -28 -68 -35 -85 -30 -72 -78 -230 -92 -304 -2 -14 -6 -27
-8 -31 -4 -7 -30 -156 -42 -240 -10 -70 -10 -456 -1 -535 20 -163 63 -348 117
-508 39 -113 53 -147 123 -287 61 -121 81 -150 115 -169 69 -36 164 29 157
109 -1 14 -30 80 -63 147 -106 212 -184 449 -207 628 -3 22 -7 45 -9 52 -7 21
-19 206 -19 298 0 91 12 273 18 284 2 3 7 29 10 56 3 28 19 104 35 170 162
654 620 1193 1241 1458 155 66 367 127 495 143 22 3 45 7 52 9 23 7 207 19
303 19 640 -1 1254 -295 1655 -794 233 -289 404 -669 450 -997 3 -21 7 -47 10
-58 17 -86 23 -316 12 -466 -21 -282 -111 -590 -245 -839 -38 -71 -170 -276
-193 -300 -8 -8 -26 -31 -40 -50 -63 -84 -220 -235 -373 -357 -82 -66 -304
-193 -431 -248 -125 -54 -166 -78 -181 -106 -36 -71 17 -159 97 -159 74 0 364
138 549 262 436 292 763 723 929 1223 27 83 52 164 55 180 2 17 7 41 11 55 10
42 23 113 29 155 3 22 10 69 15 105 9 66 7 479 -3 538 -3 17 -8 44 -11 60 -3
15 -8 47 -11 72 -3 25 -8 48 -10 51 -2 4 -6 24 -10 45 -9 61 -72 260 -115 367
-120 298 -298 567 -529 797 -373 372 -824 592 -1385 676 -81 12 -480 11 -565
-1z"/>
<path d="M3407 5304 c-1 -1 -36 -5 -77 -8 -41 -3 -100 -10 -130 -15 -30 -6
-66 -12 -80 -15 -14 -2 -59 -14 -100 -26 -41 -12 -79 -23 -85 -24 -5 -2 -19
-7 -30 -11 -11 -4 -53 -21 -93 -37 -170 -66 -363 -188 -523 -329 -61 -54 -187
-191 -224 -243 -11 -16 -29 -40 -41 -55 -37 -46 -131 -213 -172 -306 -102
-231 -155 -478 -155 -720 0 -105 9 -253 18 -295 3 -14 10 -48 15 -77 33 -192
134 -435 263 -635 180 -279 471 -525 774 -657 93 -40 232 -89 286 -100 23 -5
53 -12 67 -15 28 -7 121 -22 190 -31 95 -13 445 -6 470 10 3 2 26 6 50 10 117
16 312 81 465 155 360 174 672 493 843 860 69 149 146 413 138 477 -9 78 -87
121 -158 86 -41 -20 -54 -47 -82 -163 -126 -536 -517 -964 -1041 -1139 -155
-51 -283 -73 -455 -76 -260 -5 -470 37 -685 135 -36 16 -67 30 -70 30 -2 0
-39 21 -82 47 -282 170 -493 400 -627 684 -101 213 -147 406 -151 639 -4 262
36 464 136 690 141 316 411 600 720 755 119 61 292 122 389 140 8 1 47 8 85
16 108 20 490 16 526 -7 4 -2 24 -6 45 -10 106 -17 261 -72 404 -144 106 -54
142 -56 192 -11 28 25 33 36 32 74 0 75 -32 102 -225 187 -163 73 -372 129
-539 146 -71 7 -278 13 -283 8z"/>
<path d="M3454 4731 c-31 -14 -64 -65 -64 -99 0 -40 28 -88 60 -102 14 -7 50
-13 80 -15 184 -12 313 -47 450 -122 450 -245 645 -765 469 -1251 -87 -240
-281 -449 -520 -560 -98 -46 -127 -56 -229 -78 -74 -15 -297 -22 -350 -9 -14
3 -40 8 -59 11 -18 3 -68 17 -110 30 -414 136 -704 542 -695 975 2 117 10 166
44 284 24 83 25 107 6 143 -36 70 -145 76 -188 10 -17 -25 -53 -137 -63 -193
-44 -247 -32 -437 41 -652 91 -272 278 -507 529 -664 79 -49 240 -119 307
-133 13 -3 41 -10 63 -16 99 -26 330 -34 460 -17 133 17 329 87 450 161 248
150 447 394 534 652 57 171 66 225 66 409 0 156 -5 205 -35 317 -68 258 -210
479 -425 658 -102 86 -326 200 -437 224 -13 3 -43 10 -68 16 -96 24 -282 36
-316 21z"/>
</g>
</svg>
